<svg xmlns="http://www.w3.org/2000/svg" width="382" height="334" viewBox="0 0 382 334" fill="none"><path d="M224.097 112.509C224.097 50.6757 173.972 0.555664 112.139 0.555664C50.3053 0.555664 0.185303 50.6809 0.185303 112.509C0.185303 143.423 12.7179 171.413 32.9764 191.676L112.139 270.714L191.306 191.676C211.565 171.418 224.097 143.428 224.097 112.509Z" fill="#2B66D6"></path><path d="M381.935 126.676L256.193 0.93457L49.2643 207.863L175.006 333.605L381.935 126.676Z" fill="#F34144"></path><path d="M224.097 112.509C224.097 89.9017 217.388 68.8602 205.866 51.2617L49.2632 207.865L94.2032 252.805L112.144 270.714L191.311 191.677C211.57 171.418 224.102 143.428 224.102 112.509H224.097Z" fill="#3F2254"></path></svg>