<svg xmlns="http://www.w3.org/2000/svg" width="133" height="62" fill="none"><g clip-path="url(#a)"><path fill="#fff" d="M68.861 43.199c2.013 0 2.104.703 2.104 5.422v6.822c0 4.197-.265 5.332-2.013 5.506v.438h12.16v-.438c-2.187-.174-2.8-1.309-2.8-5.506v-2.972c0-3.585 1.665-4.81 3.935-4.81.961 0 1.748.09 2.187.438h.174v-6.821c-2.974-.09-5.16 2.45-6.122 5.944h-.174v-6.035l-9.451 1.49v.522Zm-16.103 11.98-.522-.265c-.961 1.308-2.626 2.011-4.813 2.011-3.064 0-4.986-2.533-5.335-6.647H52.41v-1.4c0-4.545-2.974-7.698-7.522-7.698-5.16 0-9.625 4.719-9.625 10.58 0 6.383 3.852 10.232 8.573 10.232 4.548 0 7.09-2.45 8.922-6.821v.007Zm-10.76-7.17c.265-4.024 1.4-5.688 2.8-5.688 1.921 0 2.451 4.024 2.277 7.087h-5.077v-1.4Zm26.598-38.39c2.104 0 2.278 1.052 2.278 5.423v14.082c0 4.107-.265 5.249-2.104 5.423v.439h11.29v-.439c-1.665-.174-1.922-1.308-1.922-5.423v-1.399c.787.174 1.748.348 2.71.348 6.121 0 10.147-4.462 10.147-10.316 0-6.557-2.974-10.232-7.09-10.232-2.188 0-3.936 1.051-5.691 3.502h-.09V7.616l-9.535 1.49v.521l.007-.007Zm-17.677 0c2.013 0 2.104.704 2.104 5.423v6.822c0 4.197-.265 5.332-2.013 5.506v.438h12.16v-.438c-2.186-.174-2.8-1.309-2.8-5.506v-2.972c0-3.585 1.665-4.81 3.935-4.81.962 0 1.748.09 2.187.439h.174V7.699c-2.973-.09-5.16 2.45-6.121 5.944h-.174V7.608l-9.452 1.49v.522Zm-24.85 0c2.013 0 2.013.704 2.013 5.423v6.119c0 4.545 1.922 7.26 6.121 7.26 2.626 0 4.64-1.399 5.691-3.41h.09v2.797h9.452v-.438c-1.922-.174-2.187-1.309-2.187-5.506V7.608l-9.451 1.49v.522c2.187 0 2.187.703 2.187 5.422v8.486a3.667 3.667 0 0 1-2.013.613c-1.31 0-2.535-.961-2.535-3.32V7.607l-9.36 1.49v.522h-.008Zm5.335 44.16-.349-13.991c-.09-4.462.349-5.158 3.065-5.506v-.522H23.36l-5.948 14.43-4.465-14.43H1.491v.522c2.709.348 3.064.96 3.064 5.332-.264 3.85-.348 7.699-.613 11.54-.62 7.79-1.49 9.008-3.942 9.795v.438h8.309v-.438c-2.361-.522-3.065-2.186-3.065-7.434 0-1.052 0-2.277.09-3.676l.44-11.896 8.4 21.425h.09l9.187-22.121.522 16.177c.174 6.209-.522 7.17-3.239 7.517v.439h14.264v-.439c-2.278-.703-3.413-.786-3.587-7.17l-.007.008ZM92.22 1.921c2.103 0 2.187.703 2.187 5.075v14.868c0 4.197-.265 5.332-1.922 5.506v.438h11.199v-.438c-1.574-.174-1.922-1.309-1.922-5.506V0l-9.535 1.4v.521h-.007Zm30.185 19.678-.522-.264c-.961 1.308-2.626 2.011-4.813 2.011-3.064 0-4.987-2.533-5.335-6.647h10.322v-1.4c0-4.545-2.974-7.698-7.522-7.698-5.161 0-9.625 4.719-9.625 10.58 0 6.383 3.851 10.232 8.573 10.232 4.548 0 7.091-2.45 8.922-6.821v.007Zm-44.275-9.18c.439-.523 1.135-1.052 2.187-1.052 2.36 0 3.503 3.41 3.503 7.873 0 4.023-.878 7.873-3.413 7.873-1.225 0-2.277-.96-2.277-4.372V12.418Zm-12.6 45.3c-1.49 0-2.535-.96-2.535-4.197V43.38h4.11v-.703h-4.11v-5.158l-9.534 5.158v.703h2.187v11.897c0 4.636 2.187 6.73 6.121 6.73 3.065 0 5.161-1.837 6.04-4.545l-.349-.264c-.522.347-1.31.521-1.922.521h-.008Zm62.565-8.833c-3.851-1.747-4.903-2.276-4.903-3.933 0-1.663 1.4-2.624 2.974-2.624.787 0 1.665.174 2.361.613 1.4.786 2.361 2.36 2.89 4.81h.613v-5.597c-1.748-.612-3.412-.96-5.69-.96-4.813 0-8.309 3.146-8.309 7.17 0 2.533.878 4.461 4.548 6.208 3.504 1.664 5.509 2.36 5.509 4.107 0 1.573-1.665 2.276-3.322 2.276-.878 0-1.665-.174-2.361-.522-1.574-.786-2.891-2.624-3.761-5.596h-.613v5.596c1.748.961 4.291 1.574 6.304 1.574 4.903 0 8.664-2.534 8.664-6.474 0-2.89-.787-4.72-4.904-6.648Zm-17.063 8.047c-3.239 0-6.122-3.146-5.774-8.569.091-3.584 2.278-6.035 4.374-6.035 2.451 0 3.851 3.32 4.548 6.822h.612l-.09-6.996c-1.052-.612-3.065-.96-4.465-.96-6.651 0-11.547 4.106-11.547 10.497 0 6.557 3.935 10.316 8.747 10.316 4.2 0 6.735-2.45 8.665-6.905l-.439-.265c-1.052 1.308-2.626 2.102-4.639 2.102l.008-.007Zm-15.135-1.4V41.196l-9.451 1.399v.522c2.013 0 2.104 1.05 2.104 5.422v6.996c0 4.106-.174 5.248-1.922 5.422v.439h11.199v-.439c-1.665-.174-1.922-1.308-1.922-5.422h-.008Zm15.748-41.103c.264-4.024 1.399-5.687 2.799-5.687 1.922 0 2.452 4.023 2.278 7.086h-5.077v-1.4ZM87.673 34.978c0 2.45 1.665 4.288 4.2 4.288 2.36 0 4.109-1.838 4.109-4.288s-1.748-4.197-4.11-4.197c-2.534 0-4.2 1.747-4.2 4.197ZM12.425 1.051c2.361.174 5.6 1.921 5.6 7.956s-3.322 8.486-5.6 9.008V1.05ZM1.491 27.81h14.695v-.44c-2.974-.347-3.76-1.05-3.76-5.505v-3.146c8.225-.174 12.598-3.676 12.598-10.142 0-5.596-3.76-8.394-11.116-8.394H1.491v.43C4.2.96 4.813 1.665 4.813 6.036v15.83c0 4.461-.613 5.157-3.322 5.505v.438Z"/></g><defs><clipPath id="a"><path fill="#fff" d="M0 0h133v62H0z"/></clipPath></defs></svg>